<svg width="56" height="56" viewBox="0 0 56 56" fill="none" xmlns="http://www.w3.org/2000/svg">
<path d="M42.1244 24.1H25.5024V12.4C25.5024 10.2333 23.7799 8.5 21.6268 8.5C19.4737 8.5 17.7512 10.2333 17.7512 12.4V16.3H13.8756C12.799 16.3 11.8517 16.7333 11.1196 17.4267C10.4306 18.12 10 19.1167 10 20.2C10 22.3667 11.7225 24.1 13.8756 24.1H17.7512V43.6C17.7512 45.7667 19.4737 47.5 21.6268 47.5C23.7799 47.5 25.5024 45.7667 25.5024 43.6V39.7H33.2536V43.6C33.2536 45.7667 34.9761 47.5 37.1292 47.5C39.2823 47.5 41.0048 45.7667 41.0048 43.6V31.9H42.1244C43.201 31.9 44.1483 31.4667 44.8804 30.7733C45.5694 30.08 46 29.0833 46 28C46 25.8333 44.2775 24.1 42.1244 24.1ZM19.4306 13.0067C19.9043 13.0067 20.3349 13.6133 20.3349 14.35C20.3349 15.0867 19.9474 15.6933 19.4306 15.6933C18.9139 15.6933 18.5263 15.0867 18.5263 14.35C18.5263 13.6133 18.9569 13.0067 19.4306 13.0067Z" fill="black"/>
</svg>
